<svg width="377" height="377" viewBox="0 0 377 377" fill="none" xmlns="http://www.w3.org/2000/svg">
<path opacity="0.34" d="M311.59 308.348H78.1521C75.1738 308.348 72.761 305.935 72.761 302.957C72.761 299.979 75.1738 297.566 78.1521 297.566H311.59C314.569 297.566 316.982 299.979 316.982 302.957C316.982 305.935 314.569 308.348 311.59 308.348Z" fill="black"/>
<path d="M240.68 302.966H247.466V200.875H240.68V302.966Z" fill="#2F262D"/>
<path d="M214.852 221.45C213.759 218.999 214.852 216.096 217.341 214.965C217.981 214.702 218.66 214.551 219.339 214.551C221.261 214.551 223.033 215.682 223.825 217.454L247.953 271.817L238.98 275.813L214.852 221.45Z" fill="#FC9F6F"/>
<path d="M174.515 302.966H181.301V200.875H174.515V302.966Z" fill="#2F262D"/>
<path d="M205.917 207.539C182.581 207.539 163.693 189.744 163.693 167.84C163.693 162.185 164.975 156.794 167.237 151.893C152.383 158.038 142.016 172.025 142.016 188.236C142.016 210.178 160.904 227.934 184.24 227.934C201.544 227.934 216.398 218.17 222.92 204.183C217.68 206.332 211.949 207.539 205.917 207.539Z" fill="#F2F2F2"/>
<path d="M182.543 218.283C195.307 218.283 205.653 208.78 205.653 197.058C205.653 185.336 195.307 175.833 182.543 175.833C169.78 175.833 159.433 185.336 159.433 197.058C159.433 208.78 169.78 218.283 182.543 218.283Z" fill="#3B323A"/>
<path d="M140.923 200.866H89.2359C87.2755 200.866 85.6544 199.245 85.6544 197.284V193.891C85.6544 191.931 87.2755 190.31 89.2359 190.31H140.923C142.883 190.31 144.504 191.931 144.504 193.891V197.284C144.504 199.245 142.883 200.866 140.923 200.866Z" fill="#AFAFAF"/>
<path d="M202.562 180.885C195.324 180.885 189.443 175.003 189.443 167.765V154.645C189.443 149.631 185.409 145.597 180.395 145.597V167.765C180.395 180.018 190.31 189.933 202.562 189.933H220.922V180.885H202.562Z" fill="#EF9067"/>
<path d="M205.54 111.63C204.183 128.783 189.103 147.784 175.003 145.371C161.507 143.072 152.233 121.771 156.794 106.842C159.622 97.643 167.388 91.8749 173.646 87.2378C180.131 82.4122 184.504 79.17 189.48 79.9617C199.358 81.4697 206.634 97.9823 205.54 111.63Z" fill="#603936"/>
<path d="M186.502 160.451C186.238 160.15 184.127 157.699 183.75 157.36C182.77 153.326 180.771 148.877 181.186 143.675C178.359 141.601 173.684 138.962 168.368 139.339C166.785 139.452 165.126 139.829 164.297 140.018C159.697 141.073 156.794 142.77 155.852 143.335C154.57 144.127 153.929 144.504 153.175 145.258C151.139 147.369 150.649 149.933 150.385 151.441C148.123 164.56 149.895 177.152 150.121 178.246C150.536 180.244 151.102 182.016 151.102 182.016C152.044 184.994 153.175 186.841 153.477 187.671C154.985 191.742 158.415 200.3 162.035 206.822C164.674 207.237 170.668 209.876 174.626 208.519C180.658 206.445 193.099 201.808 197.548 200.866C192.006 194.645 186.917 187.708 185.597 179.263C185.258 177.077 184.956 174.928 184.73 172.817C185.258 172.553 188.462 170.932 189.103 167.69C189.782 164.183 187.03 161.054 186.502 160.451Z" fill="#F05364"/>
<path d="M172.888 152.493C176.177 151.576 177.977 147.728 176.909 143.897C175.841 140.067 172.308 137.705 169.019 138.622C165.73 139.539 163.93 143.388 164.998 147.218C166.066 151.049 169.599 153.411 172.888 152.493Z" fill="#EF9067"/>
<path d="M169.989 137.002C172.063 141.903 175.493 143.599 177.68 144.881C181.94 147.369 189.933 147.143 189.933 147.143C190.196 145.409 190.46 143.901 191.818 141.036C193.778 136.776 195.588 135.758 198.113 131.912C201.883 126.107 203.768 119.094 202.562 118.416C201.695 117.888 199.32 120.602 197.774 122.186C193.363 126.71 183.486 133.42 169.989 137.002Z" fill="#603936"/>
<path d="M169.838 147.784H168.255C164.787 147.784 161.997 144.994 161.997 141.526V117.737H174.513V143.071C174.513 145.673 172.402 147.784 169.838 147.784Z" fill="#EF9067"/>
<path d="M99.3709 302.966H106.157L106.157 200.875H99.3709L99.3709 302.966Z" fill="#2F262D"/>
<path d="M141.109 302.966H147.895V200.875H141.109V302.966Z" fill="#494149"/>
<path d="M281.525 302.966H288.311V200.875H281.525V302.966Z" fill="#494149"/>
<path opacity="0.71" d="M161.997 120.263C162.826 127.464 167.803 133.42 174.513 135.682V116.305H161.997V120.263Z" fill="#D36B46"/>
<path d="M180.395 134.74C171.196 134.74 163.769 127.313 163.769 118.114V97.8315C163.769 96.9644 164.447 96.2858 165.315 96.2858H188.952C193.401 96.2858 197.02 99.905 197.02 104.354V118.114C197.02 127.313 189.593 134.74 180.395 134.74Z" fill="#FC9F6F"/>
<path d="M197.02 115.739C196.832 116.191 196.379 116.493 195.889 116.493H188.575C187.897 116.493 187.331 115.927 187.331 115.249V111.14C187.331 110.461 187.897 109.895 188.575 109.895H195.889C196.379 109.895 196.832 110.197 197.02 110.649V109.066C196.681 108.878 196.304 108.764 195.889 108.764H188.575C187.256 108.764 186.2 109.82 186.2 111.14V115.249C186.2 116.568 187.256 117.624 188.575 117.624H195.889C196.304 117.624 196.681 117.511 197.02 117.322V115.739Z" fill="#DD9883"/>
<path d="M182.317 117.021H175.003C173.986 117.021 173.194 116.191 173.194 115.211V111.102C173.194 110.084 174.023 109.292 175.003 109.292H182.317C183.335 109.292 184.127 110.122 184.127 111.102V115.211C184.127 116.229 183.297 117.021 182.317 117.021Z" stroke="#DD9883" stroke-width="3" stroke-miterlimit="10" stroke-linecap="round" stroke-linejoin="round"/>
<path opacity="0.6" d="M174.099 121.281V100.998C174.099 100.131 174.777 99.4526 175.644 99.4526L189.292 94.6647C187.821 92.742 191.554 96.3235 188.952 96.3235H165.315C164.447 96.3235 163.769 97.0021 163.769 97.8692V118.152C163.769 127.351 171.196 134.778 180.394 134.778C180.583 134.778 180.771 134.778 180.998 134.778C176.813 131.724 174.099 126.823 174.099 121.281Z" fill="#EF9067"/>
<path d="M195.889 116.267H188.575C187.557 116.267 186.766 115.437 186.766 114.457V110.348C186.766 109.33 187.595 108.538 188.575 108.538H195.889C196.907 108.538 197.699 109.368 197.699 110.348V114.457C197.699 115.475 196.869 116.267 195.889 116.267Z" stroke="#F6CDF7" stroke-width="3" stroke-miterlimit="10" stroke-linecap="round" stroke-linejoin="round"/>
<path d="M184.73 126.37C182.619 126.37 180.922 124.674 180.922 122.6V120.828H188.462V122.6C188.462 124.674 186.803 126.37 184.73 126.37Z" fill="#FCFAFA"/>
<path d="M177.906 111.931H181.299" stroke="#161515" stroke-width="3" stroke-miterlimit="10" stroke-linecap="round" stroke-linejoin="round"/>
<path d="M190.724 111.931H194.117" stroke="#161515" stroke-width="3" stroke-miterlimit="10" stroke-linecap="round" stroke-linejoin="round"/>
<path d="M182.317 116.267H175.003C173.986 116.267 173.194 115.437 173.194 114.457V110.348C173.194 109.33 174.023 108.538 175.003 108.538H182.317C183.335 108.538 184.127 109.368 184.127 110.348V114.457C184.127 115.475 183.297 116.267 182.317 116.267Z" stroke="#F6CDF7" stroke-width="3" stroke-miterlimit="10" stroke-linecap="round" stroke-linejoin="round"/>
<path d="M187.369 81.0173C182.807 75.1361 175.041 75.2492 173.609 75.0984C172.327 74.8345 165.277 75.1738 160.112 76.531C148.199 79.6978 139.905 90.48 139.905 102.846V118.68C139.905 129.311 147.746 142.204 157.812 145.56C163.392 147.445 169.575 148.877 171.045 148.651C163.58 134.815 164.598 126.634 166.709 121.846C171.761 110.159 186.577 110.574 190.234 97.5676C190.31 97.1906 192.609 87.8033 187.369 81.0173Z" fill="#754743"/>
<path d="M233.891 189.819C234.268 188.839 234.456 187.784 234.456 186.69C234.456 181.676 230.422 177.642 225.408 177.642C220.394 177.642 216.36 181.676 216.36 186.69C216.36 187.784 216.549 188.839 216.926 189.819H233.891Z" fill="#EF9067"/>
<path d="M204.862 190.31C204.108 186.841 199.923 184.202 194.834 184.202C189.782 184.202 185.559 186.841 184.805 190.31H204.862Z" fill="#F4EFF0"/>
<path d="M155.211 163.92C158.251 163.92 160.715 160.054 160.715 155.286C160.715 150.518 158.251 146.653 155.211 146.653C152.171 146.653 149.707 150.518 149.707 155.286C149.707 160.054 152.171 163.92 155.211 163.92Z" fill="#EF9067"/>
<path d="M171.874 181.186C164.636 181.186 158.755 175.305 158.755 168.067V152.044C158.755 149.556 156.719 147.52 154.231 147.52C151.742 147.52 149.707 149.556 149.707 152.044V168.067C149.707 180.319 159.622 190.234 171.874 190.234H190.234V181.186H181.035H171.874Z" fill="#FC9F6F"/>
<path d="M248.104 190.31H205.88C205.352 190.31 204.9 189.857 204.9 189.329C204.9 188.802 205.352 188.349 205.88 188.349H248.141C248.669 188.349 249.122 188.802 249.122 189.329C249.122 189.857 248.669 190.31 248.104 190.31Z" fill="white"/>
<path d="M248.104 189.329H205.88C205.503 189.329 205.201 189.141 205.013 188.839C204.937 188.99 204.862 189.141 204.862 189.329C204.862 189.857 205.314 190.31 205.842 190.31H248.104C248.631 190.31 249.084 189.857 249.084 189.329C249.084 189.141 249.046 188.99 248.933 188.839C248.782 189.103 248.481 189.329 248.104 189.329Z" fill="#F4EFF0"/>
<path d="M214.061 190.31H205.88C205.352 190.31 204.9 189.857 204.9 189.329C204.9 188.802 205.352 188.349 205.88 188.349H214.061C214.588 188.349 215.041 188.802 215.041 189.329C215.041 189.857 214.626 190.31 214.061 190.31Z" fill="#F4EFF0"/>
<path d="M245.125 188.349H242.034V187.633C242.034 187.256 242.336 186.917 242.75 186.917H244.409C244.786 186.917 245.125 187.218 245.125 187.633V188.349Z" fill="#F4EFF0"/>
<path d="M241.355 188.349H238.264V187.633C238.264 187.256 238.566 186.917 238.98 186.917H240.639C241.016 186.917 241.355 187.218 241.355 187.633V188.349Z" fill="#F4EFF0"/>
<path d="M237.585 188.349H234.494V187.633C234.494 187.256 234.796 186.917 235.21 186.917H236.869C237.246 186.917 237.585 187.218 237.585 187.633V188.349Z" fill="#F4EFF0"/>
<path d="M233.815 188.349H230.724V187.633C230.724 187.256 231.026 186.917 231.44 186.917H233.099C233.476 186.917 233.815 187.218 233.815 187.633V188.349Z" fill="#F4EFF0"/>
<path d="M230.045 188.349H226.954V187.633C226.954 187.256 227.256 186.917 227.67 186.917H229.329C229.706 186.917 230.045 187.218 230.045 187.633V188.349Z" fill="#F4EFF0"/>
<path d="M226.275 188.349H223.184V187.633C223.184 187.256 223.486 186.917 223.9 186.917H225.559C225.936 186.917 226.275 187.218 226.275 187.633V188.349Z" fill="#F4EFF0"/>
<path d="M222.505 188.349H219.414V187.633C219.414 187.256 219.716 186.917 220.13 186.917H221.789C222.166 186.917 222.505 187.218 222.505 187.633V188.349Z" fill="#F4EFF0"/>
<path d="M218.735 188.349H215.644V187.633C215.644 187.256 215.946 186.917 216.36 186.917H218.019C218.396 186.917 218.735 187.218 218.735 187.633V188.349Z" fill="#F4EFF0"/>
<path d="M214.965 188.349H211.874V187.633C211.874 187.256 212.176 186.917 212.59 186.917H214.249C214.626 186.917 214.965 187.218 214.965 187.633V188.349Z" fill="#F4EFF0"/>
<path d="M211.195 188.349H208.104V187.633C208.104 187.256 208.406 186.917 208.82 186.917H210.479C210.856 186.917 211.195 187.218 211.195 187.633V188.349Z" fill="#F4EFF0"/>
<path d="M205.88 190.31H214.061C214.588 190.31 215.041 189.857 215.041 189.329H204.862C204.862 189.857 205.314 190.31 205.88 190.31Z" fill="#E2E2E2"/>
<path d="M209.537 220.922H179.716L179.49 205.088H216.436C218.924 205.088 220.922 207.086 220.922 209.574C220.884 215.87 215.795 220.922 209.537 220.922Z" fill="#352934"/>
<path d="M185.559 278.339L203.844 216.511C204.447 214.438 206.37 213.005 208.556 213.005C209.009 213.005 209.499 213.08 209.951 213.194C212.553 213.948 214.023 216.7 213.269 219.301L194.984 281.129L185.559 278.339Z" fill="#EF9067"/>
<path d="M200.752 273.287L185.559 268.801L204.711 204.07C205.955 199.885 210.366 197.473 214.551 198.717C218.735 199.961 221.148 204.372 219.904 208.556L200.752 273.287Z" fill="#352934"/>
<path d="M276.228 171.987H212.892C211.648 171.987 210.63 170.969 210.63 169.725L218.472 124.485C218.472 123.241 219.489 122.223 220.734 122.223H284.07C285.314 122.223 286.332 123.241 286.332 124.485L278.49 169.725C278.49 170.969 277.51 171.987 276.228 171.987Z" fill="#CECECE"/>
<path d="M279.998 171.987H216.662C215.418 171.987 214.4 170.969 214.4 169.725L222.241 124.485C222.241 123.241 223.259 122.223 224.503 122.223H287.84C289.084 122.223 290.102 123.241 290.102 124.485L282.26 169.725C282.26 170.969 281.28 171.987 279.998 171.987Z" fill="#F4EFF0"/>
<path d="M260.658 187.859L255.455 161.507H246.181C245.05 161.507 244.183 162.562 244.409 163.656L249.009 186.917C249.197 187.784 248.518 188.575 247.651 188.575H241.996C240.978 188.575 240.187 189.405 240.187 190.385H249.687H258.509C259.904 190.423 260.922 189.179 260.658 187.859Z" fill="#CECECE"/>
<path d="M261.148 190.423H251.534L245.955 162.148C245.879 161.808 246.143 161.544 246.483 161.544H257.303L262.656 188.651C262.807 189.556 262.09 190.423 261.148 190.423Z" fill="#F4EFF0"/>
<path d="M249.725 190.423H251.534L251.044 187.859H249.197L249.725 190.423Z" fill="#F4EFF0"/>
<path d="M249.725 190.423C250.667 190.423 251.384 189.556 251.195 188.613L251.044 187.859H249.008L249.725 190.423Z" fill="#CECECE"/>
<path d="M258.019 148.01C255.983 148.01 254.324 146.351 254.324 144.316C254.324 143.637 254.513 143.034 254.814 142.506C254.287 142.355 253.721 142.242 253.118 142.242C249.913 142.242 247.35 144.843 247.35 148.01C247.35 151.177 249.951 153.778 253.118 153.778C256.322 153.778 258.886 151.177 258.886 148.01C258.886 147.972 258.886 147.935 258.886 147.897C258.584 147.972 258.32 148.01 258.019 148.01Z" fill="#CECECE"/>
<path d="M214.174 212.289L183.109 220.47C174.664 222.694 166.106 216.7 161.997 206.784L210.14 196.945C214.362 195.851 218.698 198.377 219.791 202.6C220.922 206.86 218.396 211.195 214.174 212.289Z" fill="#3B323A"/>
<path d="M245.427 259.414L230.95 265.86L205.578 208.783C203.806 204.786 205.616 200.112 209.612 198.34C213.608 196.568 218.283 198.377 220.055 202.374L245.427 259.414Z" fill="#3B323A"/>
<path d="M137.794 200.866H299.225C301.185 200.866 302.806 199.245 302.806 197.284V193.891C302.806 191.931 301.185 190.31 299.225 190.31H137.794C135.833 190.31 134.212 191.931 134.212 193.891V197.284C134.212 199.245 135.795 200.866 137.794 200.866Z" fill="#F2F2F2"/>
<path d="M269.027 277.774L236.944 283.617C235.7 283.843 234.532 283.052 234.268 281.883L234.042 280.865C233.401 277.924 235.286 274.946 238.377 274.154L261.751 268.236C266.275 267.105 270.837 269.178 271.666 272.986L271.968 274.343C272.307 275.889 270.988 277.434 269.027 277.774Z" fill="#535452"/>
<path d="M270.271 274.871L234.419 281.393C234.343 281.393 234.268 281.43 234.192 281.43L234.306 281.883C234.569 283.089 235.738 283.843 236.982 283.617L269.065 277.774C271.025 277.434 272.382 275.889 272.043 274.343L272.006 274.23C271.478 274.531 270.912 274.758 270.271 274.871Z" fill="#FFFDFD"/>
<path d="M202.788 297.943L175.984 279.395C174.966 278.678 174.664 277.283 175.343 276.266L175.908 275.361C177.529 272.835 180.998 272.043 183.712 273.702L204.409 286.068C208.443 288.48 210.178 293.193 208.066 296.435L207.312 297.604C206.483 298.923 204.409 299.074 202.788 297.943Z" fill="#424441"/>
<path d="M205.729 296.774L175.757 276.039C175.682 276.002 175.644 275.926 175.569 275.889L175.343 276.266C174.702 277.283 174.966 278.678 175.984 279.395L202.788 297.943C204.409 299.074 206.483 298.923 207.312 297.604L207.388 297.491C206.822 297.378 206.257 297.114 205.729 296.774Z" fill="#CECECE"/>
<path d="M128.557 190.31H122.45C119.358 190.31 116.832 187.784 116.832 184.692V168.067H134.174V184.692C134.212 187.784 131.686 190.31 128.557 190.31Z" fill="#FF6161"/>
<path d="M118.793 170.329C114.759 170.329 111.517 173.609 111.517 177.605C111.517 181.601 114.797 184.881 118.793 184.881C122.789 184.881 126.069 181.601 126.069 177.605C126.069 173.609 122.789 170.329 118.793 170.329ZM118.793 183.297C115.664 183.297 113.1 180.734 113.1 177.605C113.1 174.476 115.664 171.912 118.793 171.912C121.922 171.912 124.485 174.476 124.485 177.605C124.448 180.772 121.922 183.297 118.793 183.297Z" fill="#F4A36C"/>
<path d="M128.557 190.31H122.45C119.358 190.31 116.832 187.784 116.832 184.692V168.067H134.174V184.692C134.212 187.784 131.686 190.31 128.557 190.31Z" fill="#F7BC8B"/>
<path d="M125.051 185.032C123.317 185.032 121.922 183.637 121.922 181.903V168.067H116.832V184.692C116.832 187.784 119.358 190.31 122.45 190.31H128.557C131.535 190.31 133.986 187.972 134.174 185.032H125.051Z" fill="#EFA573"/>
<path d="M196.945 190.31C197.322 189.329 197.51 188.274 197.51 187.181C197.51 182.166 193.476 178.133 188.462 178.133C183.448 178.133 179.414 182.166 179.414 187.181C179.414 188.274 179.603 189.329 179.98 190.31H196.945Z" fill="#FC9F6F"/>
<path opacity="0.77" d="M123.618 165.051C124.972 165.051 126.069 163.953 126.069 162.6C126.069 161.247 124.972 160.15 123.618 160.15C122.265 160.15 121.168 161.247 121.168 162.6C121.168 163.953 122.265 165.051 123.618 165.051Z" fill="#F2F2F2"/>
<path opacity="0.77" d="M128.142 157.699C130.162 157.699 131.799 156.062 131.799 154.042C131.799 152.023 130.162 150.385 128.142 150.385C126.123 150.385 124.485 152.023 124.485 154.042C124.485 156.062 126.123 157.699 128.142 157.699Z" fill="#F2F2F2"/>
</svg>
