<svg width="32" height="32" viewBox="0 0 32 32" fill="none" xmlns="http://www.w3.org/2000/svg">
<path d="M15.996 10.6644C13.058 10.6644 10.6604 13.062 10.6604 16C10.6604 18.938 13.058 21.3356 15.996 21.3356C18.934 21.3356 21.3316 18.938 21.3316 16C21.3316 13.062 18.934 10.6644 15.996 10.6644ZM31.9988 16C31.9988 13.7905 32.0188 11.601 31.8947 9.39554C31.7707 6.83381 31.1863 4.56027 29.313 2.68701C27.4357 0.809737 25.1662 0.229345 22.6045 0.105261C20.395 -0.018823 18.2055 0.00119058 16 0.00119058C13.7905 0.00119058 11.601 -0.018823 9.39554 0.105261C6.83381 0.229345 4.56027 0.813739 2.68701 2.68701C0.809737 4.56427 0.229345 6.83381 0.105261 9.39554C-0.018823 11.605 0.00119058 13.7945 0.00119058 16C0.00119058 18.2055 -0.018823 20.399 0.105261 22.6045C0.229345 25.1662 0.81374 27.4397 2.68701 29.313C4.56427 31.1903 6.83381 31.7707 9.39554 31.8947C11.605 32.0188 13.7945 31.9988 16 31.9988C18.2095 31.9988 20.399 32.0188 22.6045 31.8947C25.1662 31.7707 27.4397 31.1863 29.313 29.313C31.1903 27.4357 31.7707 25.1662 31.8947 22.6045C32.0228 20.399 31.9988 18.2095 31.9988 16ZM15.996 24.2095C11.4529 24.2095 7.78645 20.5431 7.78645 16C7.78645 11.4569 11.4529 7.79045 15.996 7.79045C20.5391 7.79045 24.2055 11.4569 24.2055 16C24.2055 20.5431 20.5391 24.2095 15.996 24.2095ZM24.5418 9.37152C23.4811 9.37152 22.6245 8.51494 22.6245 7.45423C22.6245 6.39351 23.4811 5.53693 24.5418 5.53693C25.6025 5.53693 26.4591 6.39351 26.4591 7.45423C26.4594 7.7061 26.41 7.95556 26.3138 8.18832C26.2175 8.42108 26.0763 8.63256 25.8982 8.81066C25.7201 8.98876 25.5086 9.12998 25.2759 9.22622C25.0431 9.32246 24.7936 9.37184 24.5418 9.37152Z" fill="black"/>
</svg>
