<svg width="39" height="32" viewBox="0 0 39 32" fill="none" xmlns="http://www.w3.org/2000/svg">
<g clip-path="url(#clip0)">
<path d="M38.9991 3.7905C37.913 5.42222 36.5806 6.81318 35.0019 7.96339C35.0174 8.27187 35.0252 8.62053 35.0252 9.00938C35.0252 11.1699 34.7134 13.333 34.0897 15.4987C33.466 17.6644 32.5134 19.7374 31.2317 21.7177C29.95 23.6979 28.4233 25.4522 26.6515 26.9806C24.8798 28.509 22.7501 29.7277 20.2624 30.6366C17.7747 31.5456 15.1085 32 12.2639 32C7.82448 32 3.73617 30.7894 -0.000976562 28.3683C0.662323 28.4428 1.29848 28.4801 1.9075 28.4801C5.61631 28.4801 8.92887 27.3262 11.8452 25.0184C10.1159 24.9864 8.56725 24.4487 7.19915 23.4053C5.83105 22.362 4.88956 21.0288 4.37467 19.4057C4.8836 19.5036 5.3859 19.5526 5.88157 19.5526C6.59505 19.5526 7.29711 19.4586 7.98774 19.2706C6.1423 18.8973 4.61135 17.9689 3.39489 16.4853C2.17848 15.0018 1.57027 13.2896 1.57027 11.3486V11.2486C2.70301 11.8821 3.91125 12.2191 5.195 12.2595C4.10177 11.5233 3.23501 10.5634 2.59471 9.37955C1.95437 8.19574 1.6342 6.91466 1.6342 5.53629C1.6342 4.08257 1.99484 2.72889 2.71611 1.47523C4.72299 3.96285 7.15475 5.95103 10.0114 7.43978C12.868 8.92854 15.9327 9.75536 19.2054 9.92022C19.0658 9.33264 18.9959 8.71947 18.9956 8.0807C18.9956 5.85039 19.777 3.94603 21.3398 2.36762C22.9025 0.789205 24.7879 0 26.996 0C29.3077 0 31.2549 0.850251 32.8376 2.55075C34.6458 2.18896 36.339 1.53457 37.917 0.587584C37.309 2.52017 36.1375 4.01103 34.4026 5.06016C35.9972 4.86876 37.5293 4.44554 38.999 3.7905H38.9991Z" fill="black"/>
</g>
<defs>
<clipPath id="clip0">
<rect width="39" height="32" fill="white"/>
</clipPath>
</defs>
</svg>
